<svg xmlns="http://www.w3.org/2000/svg" version="1.1" xmlns:xlink="http://www.w3.org/1999/xlink" xmlns:svgjs="http://svgjs.dev/svgjs" width="2000" height="1247" viewBox="0 0 2000 1247"><g transform="matrix(1,0,0,1,-1.2121212121212466,0.504858299595071)"><svg viewBox="0 0 396 247" data-background-color="#ffffff" preserveAspectRatio="xMidYMid meet" height="1247" width="2000" xmlns="http://www.w3.org/2000/svg" xmlns:xlink="http://www.w3.org/1999/xlink"><g id="tight-bounds" transform="matrix(1,0,0,1,0.2400000000000091,-0.09999999999999432)"><svg viewBox="0 0 395.52 247.2" height="247.2" width="395.52"><g><svg></svg></g><g><svg viewBox="0 0 395.52 247.2" height="247.2" width="395.52"><mask id="f46b72aa-372f-4ac0-baa4-2e3d70890501"><rect width="395.52" height="247.2" fill="white"></rect><g transform="matrix(1,0,0,1,0,77.71093922651934)" id="clone"><svg viewBox="0 0 395.52 91.77812154696132" height="91.77812154696132" width="395.52"><g><svg viewBox="0 0 395.52 91.77812154696132" height="91.77812154696132" width="395.52"><g><svg viewBox="0 0 395.52 91.77812154696132" height="91.77812154696132" width="395.52"><g><svg viewBox="0 0 395.52 91.77812154696132" height="91.77812154696132" width="395.52"><g id="SvgjsG2175"><svg viewBox="0 0 395.52 91.77812154696132" height="91.77812154696132" width="395.52" id="SvgjsSvg2174"><g><svg viewBox="0 0 395.52 91.77812154696132" height="91.77812154696132" width="395.52"><g transform="matrix(1,0,0,1,0,0)"><svg width="395.52" viewBox="-0.5000000000000004 -41.35 263.43 61.9" height="91.77812154696132" data-palette-color="#ef5b2a"><path d="M25.78-2.63Q21.8 0.7 14.55 0.7 7.3 0.7 4.5-2.65L4.5-2.65Q2.5-4.95 2.5-9L2.5-9Q2.5-10.8 2.9-12.95L2.9-12.95 6.95-36 15.95-36 11.9-13.15Q11.7-11.9 11.7-10.55L11.7-10.55Q11.7-7.05 15.9-7.05L15.9-7.05Q18.4-7.05 19.9-8.35 21.4-9.65 22-13.15L22-13.15 26.05-36 35.05-36 31-12.95Q29.75-5.95 25.78-2.63ZM51.5-15.35L51.5-15.35Q51.5-17.5 49.42-17.5 47.35-17.5 46-15.95L46-15.95 43.2 0 34.7 0 38.95-24.05 46.85-24.05 46.3-21.1Q49.25-24.75 53.75-24.75 58.25-24.75 59.6-22.55L59.6-22.55Q60.45-21.15 60.45-19.35 60.45-17.55 60.2-16L60.2-16 58.85-8.3Q58.8-8 58.8-7.75L58.8-7.75Q58.8-6.4 60.3-6.4L60.3-6.4Q61.45-6.4 62.35-6.9L62.35-6.9 62.1-1.25Q59.75 0.7 56.75 0.7L56.75 0.7Q49.95 0.7 49.95-5L49.95-5Q49.95-6 50.15-7.15L50.15-7.15 51.35-13.8Q51.5-14.7 51.5-15.35ZM87 0.9L87 0.9Q87 8.2 83.27 12.88 79.55 17.55 73.17 17.55 66.8 17.55 64.7 14.4L64.7 14.4Q63.4 12.4 63.4 9.53 63.4 6.65 63.9 3.8L63.9 3.8 70.3-32.4 78.8-32.4 77.3-24.05 89.75-24.05 88.5-17 78.7-17Q82.25-14.15 84.62-9.6 87-5.05 87 0.9ZM74.45 10.4Q76 10.4 77.1 7.9 78.2 5.4 78.2 1.33 78.2-2.75 77.37-6.9 76.55-11.05 75.4-13.4L75.4-13.4 72.4 3.75Q72.1 5.5 72.1 6.8L72.1 6.8Q72.1 10.4 74.45 10.4L74.45 10.4ZM101.79-6.4L101.79-6.4Q102.94-6.4 103.84-6.9L103.84-6.9 103.59-1.25Q101.24 0.7 98.24 0.7L98.24 0.7Q93.69 0.7 92.34-1.4L92.34-1.4Q91.44-2.8 91.44-4.38 91.44-5.95 91.64-7.15L91.64-7.15 94.64-24.05 103.14-24.05 100.34-8.3Q100.29-8 100.29-7.75L100.29-7.75Q100.29-6.4 101.79-6.4ZM95.64-32.2L95.64-32.2Q95.64-35.4 97.07-36.88 98.49-38.35 101.49-38.35L101.49-38.35Q105.69-38.35 105.69-34.65L105.69-34.65Q105.69-31.5 104.27-30.05 102.84-28.6 99.79-28.6L99.79-28.6Q95.64-28.6 95.64-32.2ZM116.19-7.7L116.19-7.7Q116.19-6.4 117.52-6.4 118.84-6.4 119.74-6.9L119.74-6.9 119.49-1.25Q117.09 0.7 114.09 0.7L114.09 0.7Q109.54 0.7 108.19-1.4L108.19-1.4Q107.34-2.75 107.34-4.35 107.34-5.95 107.54-7.15L107.54-7.15 112.99-37.95 121.49-37.95 116.24-8.3Q116.19-8 116.19-7.7ZM133.54 0.7L133.54 0.7Q127.74 0.7 125.19-1.9L125.19-1.9Q123.29-3.8 123.29-7L123.29-7Q123.29-8.05 123.49-9.25L123.49-9.25 126.89-28.6 136.04-32.4 134.59-24.05 148.39-24.05 147.14-17 133.34-17 132.34-11.35Q132.14-10.4 132.14-9.65L132.14-9.65Q132.14-6.5 135.14-6.5L135.14-6.5Q136.74-6.5 137.81-7.85 138.89-9.2 139.29-11.45L139.29-11.45 147.59-11.45Q145.49 0.7 133.54 0.7ZM160.39 0.7L160.39 0.7Q149.99 0.7 149.99-6.5L149.99-6.5Q149.99-7.5 150.19-8.65L150.19-8.65 151.24-14.85Q152.09-19.65 155.66-22.23 159.24-24.8 165.14-24.8L165.14-24.8Q175.19-24.8 175.19-17.2L175.19-17.2Q175.19-16.1 174.99-14.8L174.99-14.8 174.39-11.25 159.14-11.25 158.94-10.1Q158.84-9.5 158.84-9L158.84-9Q158.84-6.25 162.09-6.25L162.09-6.25Q163.29-6.25 164.14-7 164.99-7.75 165.14-8.75L165.14-8.75 173.44-8.65Q171.79 0.7 160.39 0.7ZM159.64-14.3L166.39-14.3Q166.59-15.15 166.59-15.88 166.59-16.6 165.94-17.35 165.29-18.1 163.86-18.1 162.44-18.1 161.26-17.15 160.09-16.2 159.64-14.3L159.64-14.3ZM202.13-18.95L202.13-18.95Q202.13-17.25 201.56-15.65 200.98-14.05 200.43-13.3L200.43-13.3 199.88-12.6 192.33-12.6Q193.58-13.75 193.58-15.45L193.58-15.45Q193.58-16.35 193.01-16.93 192.43-17.5 191.43-17.5L191.43-17.5Q189.73-17.5 188.48-15.8L188.48-15.8 185.68 0 177.18 0 181.43-24.05 189.33-24.05 188.73-20.7Q191.58-24.75 195.63-24.75L195.63-24.75Q198.88-24.75 200.51-23.2 202.13-21.65 202.13-18.95ZM213.68 0.7L213.68 0.7Q203.28 0.7 203.28-6.5L203.28-6.5Q203.28-7.5 203.48-8.65L203.48-8.65 204.53-14.85Q205.38-19.65 208.96-22.23 212.53-24.8 218.43-24.8L218.43-24.8Q228.48-24.8 228.48-17.2L228.48-17.2Q228.48-16.1 228.28-14.8L228.28-14.8 227.68-11.25 212.43-11.25 212.23-10.1Q212.13-9.5 212.13-9L212.13-9Q212.13-6.25 215.38-6.25L215.38-6.25Q216.58-6.25 217.43-7 218.28-7.75 218.43-8.75L218.43-8.75 226.73-8.65Q225.08 0.7 213.68 0.7ZM212.93-14.3L219.68-14.3Q219.88-15.15 219.88-15.88 219.88-16.6 219.23-17.35 218.58-18.1 217.16-18.1 215.73-18.1 214.56-17.15 213.38-16.2 212.93-14.3L212.93-14.3ZM254.63-7.7L254.63-7.7Q254.63-6.4 255.95-6.4 257.28-6.4 258.18-6.9L258.18-6.9 257.93-1.25Q255.53 0.7 252.53 0.7L252.53 0.7Q247.03 0.7 246.43-3.3L246.43-3.3Q243.93 0.7 239.08 0.7L239.08 0.7Q230.88 0.7 230.88-6.35L230.88-6.35Q230.88-7.55 231.13-9L231.13-9 232.18-14.85Q232.98-19.35 235.85-22.03 238.73-24.7 243.83-24.7L243.83-24.7Q246.98-24.7 248.83-23.35L248.83-23.35 251.38-37.95 259.93-37.95 254.68-8.3Q254.63-8 254.63-7.7ZM240.48-13.85L239.83-10.1Q239.73-9.65 239.73-8.85 239.73-8.05 240.48-7.28 241.23-6.5 243-6.5 244.78-6.5 246.08-7.9L246.08-7.9 247.58-16.3Q247.03-17.55 244.98-17.55L244.98-17.55Q241.13-17.55 240.48-13.85L240.48-13.85Z" opacity="1" transform="matrix(1,0,0,1,0,0)" fill="black" class="wordmark-text-0" id="SvgjsPath2173" stroke-width="5" stroke="black" stroke-linejoin="round"></path></svg></g></svg></g></svg></g></svg></g></svg></g></svg></g></svg></g></mask><g mask="url(#f46b72aa-372f-4ac0-baa4-2e3d70890501)"><g><path d="M244.944 224.77c-17.872 14.953-43.086 22.43-75.642 22.43-32.556 0-55.12-7.522-67.694-22.565v0c-8.981-10.328-13.471-24.585-13.471-42.771v0c0-8.083 0.898-16.951 2.694-26.606v0l27.279-155.258h60.622l-27.28 153.911c-0.898 5.613-1.347 11.451-1.347 17.512v0c0 15.717 9.43 23.575 28.29 23.575v0c11.226 0 20.207-2.919 26.943-8.756 6.736-5.838 11.451-16.615 14.145-32.331v0l27.279-153.911h60.621l-27.279 155.258c-5.613 31.433-17.333 54.604-35.16 69.512z" fill="#000000" fill-rule="nonzero" stroke="none" stroke-width="1" stroke-linecap="butt" stroke-linejoin="miter" stroke-miterlimit="10" stroke-dasharray="" stroke-dashoffset="0" font-family="none" font-weight="none" font-size="none" text-anchor="none" style="mix-blend-mode: normal" data-fill-palette-color="tertiary"></path></g></g><g transform="matrix(1,0,0,1,0,77.71093922651934)"><svg viewBox="0 0 395.52 91.77812154696132" height="91.77812154696132" width="395.52"><g><svg viewBox="0 0 395.52 91.77812154696132" height="91.77812154696132" width="395.52"><g><svg viewBox="0 0 395.52 91.77812154696132" height="91.77812154696132" width="395.52"><g><svg viewBox="0 0 395.52 91.77812154696132" height="91.77812154696132" width="395.52"><g id="textblocktransform"><svg viewBox="0 0 395.52 91.77812154696132" height="91.77812154696132" width="395.52" id="textblock"><g><svg viewBox="0 0 395.52 91.77812154696132" height="91.77812154696132" width="395.52"><g transform="matrix(1,0,0,1,0,0)"><svg width="395.52" viewBox="-0.5000000000000004 -41.35 263.43 61.9" height="91.77812154696132" data-palette-color="#ef5b2a"><path d="M25.78-2.63Q21.8 0.7 14.55 0.7 7.3 0.7 4.5-2.65L4.5-2.65Q2.5-4.95 2.5-9L2.5-9Q2.5-10.8 2.9-12.95L2.9-12.95 6.95-36 15.95-36 11.9-13.15Q11.7-11.9 11.7-10.55L11.7-10.55Q11.7-7.05 15.9-7.05L15.9-7.05Q18.4-7.05 19.9-8.35 21.4-9.65 22-13.15L22-13.15 26.05-36 35.05-36 31-12.95Q29.75-5.95 25.78-2.63ZM51.5-15.35L51.5-15.35Q51.5-17.5 49.42-17.5 47.35-17.5 46-15.95L46-15.95 43.2 0 34.7 0 38.95-24.05 46.85-24.05 46.3-21.1Q49.25-24.75 53.75-24.75 58.25-24.75 59.6-22.55L59.6-22.55Q60.45-21.15 60.45-19.35 60.45-17.55 60.2-16L60.2-16 58.85-8.3Q58.8-8 58.8-7.75L58.8-7.75Q58.8-6.4 60.3-6.4L60.3-6.4Q61.45-6.4 62.35-6.9L62.35-6.9 62.1-1.25Q59.75 0.7 56.75 0.7L56.75 0.7Q49.95 0.7 49.95-5L49.95-5Q49.95-6 50.15-7.15L50.15-7.15 51.35-13.8Q51.5-14.7 51.5-15.35ZM87 0.9L87 0.9Q87 8.2 83.27 12.88 79.55 17.55 73.17 17.55 66.8 17.55 64.7 14.4L64.7 14.4Q63.4 12.4 63.4 9.53 63.4 6.65 63.9 3.8L63.9 3.8 70.3-32.4 78.8-32.4 77.3-24.05 89.75-24.05 88.5-17 78.7-17Q82.25-14.15 84.62-9.6 87-5.05 87 0.9ZM74.45 10.4Q76 10.4 77.1 7.9 78.2 5.4 78.2 1.33 78.2-2.75 77.37-6.9 76.55-11.05 75.4-13.4L75.4-13.4 72.4 3.75Q72.1 5.5 72.1 6.8L72.1 6.8Q72.1 10.4 74.45 10.4L74.45 10.4ZM101.79-6.4L101.79-6.4Q102.94-6.4 103.84-6.9L103.84-6.9 103.59-1.25Q101.24 0.7 98.24 0.7L98.24 0.7Q93.69 0.7 92.34-1.4L92.34-1.4Q91.44-2.8 91.44-4.38 91.44-5.95 91.64-7.15L91.64-7.15 94.64-24.05 103.14-24.05 100.34-8.3Q100.29-8 100.29-7.75L100.29-7.75Q100.29-6.4 101.79-6.4ZM95.64-32.2L95.64-32.2Q95.64-35.4 97.07-36.88 98.49-38.35 101.49-38.35L101.49-38.35Q105.69-38.35 105.69-34.65L105.69-34.65Q105.69-31.5 104.27-30.05 102.84-28.6 99.79-28.6L99.79-28.6Q95.64-28.6 95.64-32.2ZM116.19-7.7L116.19-7.7Q116.19-6.4 117.52-6.4 118.84-6.4 119.74-6.9L119.74-6.9 119.49-1.25Q117.09 0.7 114.09 0.7L114.09 0.7Q109.54 0.7 108.19-1.4L108.19-1.4Q107.34-2.75 107.34-4.35 107.34-5.95 107.54-7.15L107.54-7.15 112.99-37.95 121.49-37.95 116.24-8.3Q116.19-8 116.19-7.7ZM133.54 0.7L133.54 0.7Q127.74 0.7 125.19-1.9L125.19-1.9Q123.29-3.8 123.29-7L123.29-7Q123.29-8.05 123.49-9.25L123.49-9.25 126.89-28.6 136.04-32.4 134.59-24.05 148.39-24.05 147.14-17 133.34-17 132.34-11.35Q132.14-10.4 132.14-9.65L132.14-9.65Q132.14-6.5 135.14-6.5L135.14-6.5Q136.74-6.5 137.81-7.85 138.89-9.2 139.29-11.45L139.29-11.45 147.59-11.45Q145.49 0.7 133.54 0.7ZM160.39 0.7L160.39 0.7Q149.99 0.7 149.99-6.5L149.99-6.5Q149.99-7.5 150.19-8.65L150.19-8.65 151.24-14.85Q152.09-19.65 155.66-22.23 159.24-24.8 165.14-24.8L165.14-24.8Q175.19-24.8 175.19-17.2L175.19-17.2Q175.19-16.1 174.99-14.8L174.99-14.8 174.39-11.25 159.14-11.25 158.94-10.1Q158.84-9.5 158.84-9L158.84-9Q158.84-6.25 162.09-6.25L162.09-6.25Q163.29-6.25 164.14-7 164.99-7.75 165.14-8.75L165.14-8.75 173.44-8.65Q171.79 0.7 160.39 0.7ZM159.64-14.3L166.39-14.3Q166.59-15.15 166.59-15.88 166.59-16.6 165.94-17.35 165.29-18.1 163.86-18.1 162.44-18.1 161.26-17.15 160.09-16.2 159.64-14.3L159.64-14.3ZM202.13-18.95L202.13-18.95Q202.13-17.25 201.56-15.65 200.98-14.05 200.43-13.3L200.43-13.3 199.88-12.6 192.33-12.6Q193.58-13.75 193.58-15.45L193.58-15.45Q193.58-16.35 193.01-16.93 192.43-17.5 191.43-17.5L191.43-17.5Q189.73-17.5 188.48-15.8L188.48-15.8 185.68 0 177.18 0 181.43-24.05 189.33-24.05 188.73-20.7Q191.58-24.75 195.63-24.75L195.63-24.75Q198.88-24.75 200.51-23.2 202.13-21.65 202.13-18.95ZM213.68 0.7L213.68 0.7Q203.28 0.7 203.28-6.5L203.28-6.5Q203.28-7.5 203.48-8.65L203.48-8.65 204.53-14.85Q205.38-19.65 208.96-22.23 212.53-24.8 218.43-24.8L218.43-24.8Q228.48-24.8 228.48-17.2L228.48-17.2Q228.48-16.1 228.28-14.8L228.28-14.8 227.68-11.25 212.43-11.25 212.23-10.1Q212.13-9.5 212.13-9L212.13-9Q212.13-6.25 215.38-6.25L215.38-6.25Q216.58-6.25 217.43-7 218.28-7.75 218.43-8.75L218.43-8.75 226.73-8.65Q225.08 0.7 213.68 0.7ZM212.93-14.3L219.68-14.3Q219.88-15.15 219.88-15.88 219.88-16.6 219.23-17.35 218.58-18.1 217.16-18.1 215.73-18.1 214.56-17.15 213.38-16.2 212.93-14.3L212.93-14.3ZM254.63-7.7L254.63-7.7Q254.63-6.4 255.95-6.4 257.28-6.4 258.18-6.9L258.18-6.9 257.93-1.25Q255.53 0.7 252.53 0.7L252.53 0.7Q247.03 0.7 246.43-3.3L246.43-3.3Q243.93 0.7 239.08 0.7L239.08 0.7Q230.88 0.7 230.88-6.35L230.88-6.35Q230.88-7.55 231.13-9L231.13-9 232.18-14.85Q232.98-19.35 235.85-22.03 238.73-24.7 243.83-24.7L243.83-24.7Q246.98-24.7 248.83-23.35L248.83-23.35 251.38-37.95 259.93-37.95 254.68-8.3Q254.63-8 254.63-7.7ZM240.48-13.85L239.83-10.1Q239.73-9.65 239.73-8.85 239.73-8.05 240.48-7.28 241.23-6.5 243-6.5 244.78-6.5 246.08-7.9L246.08-7.9 247.58-16.3Q247.03-17.55 244.98-17.55L244.98-17.55Q241.13-17.55 240.48-13.85L240.48-13.85Z" opacity="1" transform="matrix(1,0,0,1,0,0)" fill="#000000" class="wordmark-text-0" data-fill-palette-color="primary" id="text-0"></path></svg></g></svg></g></svg></g></svg></g></svg></g></svg></g></svg></g></svg></g><defs></defs></svg><rect width="395.52" height="247.2" fill="none" stroke="none" visibility="hidden"></rect></g></svg></g></svg>